<svg xmlns="http://www.w3.org/2000/svg" version="1.1" xmlns:xlink="http://www.w3.org/1999/xlink" xmlns:svgjs="http://svgjs.dev/svgjs" width="1500" height="647" viewBox="0 0 1500 647"><g transform="matrix(1,0,0,1,-0.9090909090909918,-0.4937139482822772)"><svg viewBox="0 0 396 171" data-background-color="#f9e17e" preserveAspectRatio="xMidYMid meet" height="647" width="1500" xmlns="http://www.w3.org/2000/svg" xmlns:xlink="http://www.w3.org/1999/xlink"><g id="tight-bounds" transform="matrix(1,0,0,1,0.2400000000000091,0.13048699405915443)"><svg viewBox="0 0 395.52 170.7390260118817" height="170.7390260118817" width="395.52"><g><svg viewBox="0 0 397.4975999999999 171.59272114194107" height="170.7390260118817" width="395.52"><g><rect width="397.4975999999999" height="5.2556584150255405" x="0" y="94.29981623575638" fill="#454545" opacity="1" stroke-width="0" stroke="transparent" fill-opacity="1" class="rect-qz-0" data-fill-palette-color="primary" rx="1%" id="qz-0" data-palette-color="#454545"></rect></g><g transform="matrix(1,0,0,1,0.9887999999999693,113.31374275294301)"><svg viewBox="0 0 395.52 58.278978388998034" height="58.278978388998034" width="395.52"><g id="textblocktransform"><svg viewBox="0 0 395.52 58.278978388998034" height="58.278978388998034" width="395.52" id="textblock"><g><svg viewBox="0 0 395.52 58.278978388998034" height="58.278978388998034" width="395.52"><g transform="matrix(1,0,0,1,0,0)"><svg width="395.52" viewBox="4.7 -37 256.23 37.5" height="58.278978388998034" data-palette-color="#454545"><g class="wordmark-text-0" data-fill-palette-color="primary" id="text-0"><path d="M6.2-35L18.05-35Q20.85-35 23-33.73 25.15-32.45 26.4-30.2 27.65-27.95 27.65-25.05L27.65-25.05Q27.65-22.15 26.4-19.83 25.15-17.5 23-16.15 20.85-14.8 18.05-14.8L18.05-14.8 7.45-14.8 7.7-15.3 7.7-1.5Q7.7-0.9 7.25-0.45 6.8 0 6.2 0L6.2 0Q5.5 0 5.1-0.45 4.7-0.9 4.7-1.5L4.7-1.5 4.7-33.5Q4.7-34.1 5.15-34.55 5.6-35 6.2-35L6.2-35ZM7.4-17.7L18.05-17.7Q20-17.7 21.45-18.68 22.9-19.65 23.73-21.33 24.55-23 24.55-25.05L24.55-25.05Q24.55-27.1 23.73-28.68 22.9-30.25 21.45-31.15 20-32.05 18.05-32.05L18.05-32.05 7.45-32.05 7.7-32.5 7.7-17.4 7.4-17.7ZM54.5-25.55L54.5-25.55Q55.15-25.55 55.57-25.1 56-24.65 56-24L56-24 56-1.5Q56-0.9 55.55-0.45 55.1 0 54.5 0L54.5 0Q53.8 0 53.4-0.45 53-0.9 53-1.5L53-1.5 53-7.45 53.85-7.85Q53.85-6.45 53.07-5 52.3-3.55 50.95-2.3 49.6-1.05 47.77-0.28 45.95 0.5 43.8 0.5L43.8 0.5Q40.45 0.5 37.77-1.25 35.1-3 33.57-6.05 32.05-9.1 32.05-12.9L32.05-12.9Q32.05-16.8 33.6-19.78 35.15-22.75 37.8-24.45 40.45-26.15 43.75-26.15L43.75-26.15Q45.9-26.15 47.77-25.4 49.65-24.65 51.05-23.35 52.45-22.05 53.25-20.38 54.05-18.7 54.05-16.9L54.05-16.9 53-17.65 53-24Q53-24.65 53.4-25.1 53.8-25.55 54.5-25.55ZM44.1-2.3L44.1-2.3Q46.75-2.3 48.8-3.68 50.85-5.05 52.02-7.48 53.2-9.9 53.2-12.9L53.2-12.9Q53.2-15.85 52.02-18.2 50.85-20.55 48.8-21.95 46.75-23.35 44.1-23.35L44.1-23.35Q41.5-23.35 39.42-22 37.35-20.65 36.17-18.3 35-15.95 35-12.9L35-12.9Q35-9.9 36.15-7.48 37.3-5.05 39.37-3.68 41.45-2.3 44.1-2.3ZM75.9-26.15L75.9-26.15Q79.2-26.15 81.17-24.83 83.15-23.5 84.02-21.23 84.9-18.95 84.9-16.2L84.9-16.2 84.9-1.5Q84.9-0.9 84.45-0.45 84 0 83.4 0L83.4 0Q82.7 0 82.3-0.45 81.9-0.9 81.9-1.5L81.9-1.5 81.9-16.05Q81.9-18.05 81.25-19.7 80.59-21.35 79.12-22.35 77.65-23.35 75.25-23.35L75.25-23.35Q73.09-23.35 71.17-22.35 69.25-21.35 68.05-19.7 66.84-18.05 66.84-16.05L66.84-16.05 66.84-1.5Q66.84-0.9 66.4-0.45 65.95 0 65.34 0L65.34 0Q64.65 0 64.25-0.45 63.85-0.9 63.85-1.5L63.85-1.5 63.85-23.9Q63.85-24.5 64.27-24.95 64.7-25.4 65.34-25.4L65.34-25.4Q66-25.4 66.42-24.95 66.84-24.5 66.84-23.9L66.84-23.9 66.84-19.7 65.7-17.9Q65.8-19.5 66.72-20.98 67.65-22.45 69.09-23.63 70.55-24.8 72.32-25.48 74.09-26.15 75.9-26.15ZM104.09 0.5L104.09 0.5Q100.24 0.5 97.29-1.15 94.34-2.8 92.69-5.75 91.04-8.7 91.04-12.65L91.04-12.65Q91.04-16.9 92.72-19.9 94.39-22.9 97.07-24.53 99.74-26.15 102.74-26.15L102.74-26.15Q104.94-26.15 107.02-25.38 109.09-24.6 110.69-23.08 112.29-21.55 113.29-19.35 114.29-17.15 114.34-14.25L114.34-14.25Q114.34-13.65 113.89-13.23 113.44-12.8 112.84-12.8L112.84-12.8 92.79-12.8 92.19-15.5 111.89-15.5 111.24-14.9 111.24-15.9Q110.99-18.25 109.69-19.9 108.39-21.55 106.57-22.4 104.74-23.25 102.74-23.25L102.74-23.25Q101.24-23.25 99.67-22.65 98.09-22.05 96.82-20.78 95.54-19.5 94.74-17.53 93.94-15.55 93.94-12.85L93.94-12.85Q93.94-9.9 95.14-7.5 96.34-5.1 98.59-3.7 100.84-2.3 104.04-2.3L104.04-2.3Q105.74-2.3 107.14-2.8 108.54-3.3 109.62-4.13 110.69-4.95 111.39-5.85L111.39-5.85Q111.94-6.3 112.44-6.3L112.44-6.3Q112.99-6.3 113.37-5.9 113.74-5.5 113.74-5L113.74-5Q113.74-4.4 113.24-3.95L113.24-3.95Q111.74-2.15 109.34-0.83 106.94 0.5 104.09 0.5ZM123.84-35.5L123.84-1.5Q123.84-0.9 123.39-0.45 122.94 0 122.34 0L122.34 0Q121.69 0 121.27-0.45 120.84-0.9 120.84-1.5L120.84-1.5 120.84-35.5Q120.84-36.1 121.29-36.55 121.74-37 122.34-37L122.34-37Q122.99-37 123.42-36.55 123.84-36.1 123.84-35.5L123.84-35.5ZM158.09-35.05L158.09-35.05Q158.79-35.05 159.21-34.65 159.64-34.25 159.64-33.65L159.64-33.65Q159.64-33.3 159.49-32.9L159.49-32.9 146.14-1Q145.89-0.5 145.49-0.25 145.09 0 144.69 0L144.69 0Q144.24 0 143.84-0.25 143.44-0.5 143.29-0.95L143.29-0.95 129.99-32.8Q129.94-32.95 129.89-33.15 129.84-33.35 129.84-33.6L129.84-33.6Q129.84-34.25 130.31-34.65 130.79-35.05 131.29-35.05L131.29-35.05Q132.34-35.05 132.79-33.95L132.79-33.95 145.29-4.05 144.39-4.05 156.69-34.05Q157.19-35.05 158.09-35.05ZM168.19-24.5L168.19-1.5Q168.19-0.9 167.74-0.45 167.28 0 166.69 0L166.69 0Q166.03 0 165.61-0.45 165.19-0.9 165.19-1.5L165.19-1.5 165.19-24.5Q165.19-25.1 165.61-25.55 166.03-26 166.69-26L166.69-26Q167.34-26 167.76-25.55 168.19-25.1 168.19-24.5L168.19-24.5ZM166.69-29.35L166.69-29.35Q165.64-29.35 165.11-29.83 164.59-30.3 164.59-31.2L164.59-31.2 164.59-31.7Q164.59-32.6 165.16-33.08 165.74-33.55 166.74-33.55L166.74-33.55Q167.69-33.55 168.21-33.08 168.74-32.6 168.74-31.7L168.74-31.7 168.74-31.2Q168.74-30.3 168.21-29.83 167.69-29.35 166.69-29.35ZM174.53-4.05L174.53-4.05Q174.13-4.65 174.16-5.23 174.18-5.8 174.78-6.15L174.78-6.15Q175.18-6.5 175.71-6.45 176.23-6.4 176.68-5.95L176.68-5.95Q178.03-4.2 179.96-3.13 181.88-2.05 184.53-2.05L184.53-2.05Q185.93-2.05 187.31-2.53 188.68-3 189.58-3.98 190.48-4.95 190.48-6.45L190.48-6.45Q190.48-8 189.58-8.95 188.68-9.9 187.26-10.45 185.83-11 184.23-11.4L184.23-11.4Q182.53-11.85 180.93-12.43 179.33-13 178.11-13.88 176.88-14.75 176.13-16 175.38-17.25 175.38-19.05L175.38-19.05Q175.38-21.15 176.53-22.75 177.68-24.35 179.66-25.25 181.63-26.15 184.13-26.15L184.13-26.15Q185.38-26.15 186.83-25.83 188.28-25.5 189.68-24.75 191.08-24 192.18-22.7L192.18-22.7Q192.63-22.25 192.63-21.68 192.63-21.1 192.13-20.65L192.13-20.65Q191.73-20.35 191.21-20.35 190.68-20.35 190.33-20.75L190.33-20.75Q189.13-22.1 187.48-22.8 185.83-23.5 183.93-23.5L183.93-23.5Q182.48-23.5 181.21-23.03 179.93-22.55 179.08-21.6 178.23-20.65 178.23-19.1L178.23-19.1Q178.33-17.65 179.26-16.75 180.18-15.85 181.71-15.25 183.23-14.65 185.13-14.15L185.13-14.15Q186.73-13.75 188.21-13.2 189.68-12.65 190.81-11.83 191.93-11 192.61-9.75 193.28-8.5 193.28-6.6L193.28-6.6Q193.28-4.4 192.06-2.8 190.83-1.2 188.78-0.35 186.73 0.5 184.23 0.5L184.23 0.5Q181.53 0.5 179.01-0.55 176.48-1.6 174.53-4.05ZM202.33-24.5L202.33-1.5Q202.33-0.9 201.88-0.45 201.43 0 200.83 0L200.83 0Q200.18 0 199.76-0.45 199.33-0.9 199.33-1.5L199.33-1.5 199.33-24.5Q199.33-25.1 199.76-25.55 200.18-26 200.83-26L200.83-26Q201.48-26 201.91-25.55 202.33-25.1 202.33-24.5L202.33-24.5ZM200.83-29.35L200.83-29.35Q199.78-29.35 199.26-29.83 198.73-30.3 198.73-31.2L198.73-31.2 198.73-31.7Q198.73-32.6 199.31-33.08 199.88-33.55 200.88-33.55L200.88-33.55Q201.83-33.55 202.36-33.08 202.88-32.6 202.88-31.7L202.88-31.7 202.88-31.2Q202.88-30.3 202.36-29.83 201.83-29.35 200.83-29.35ZM233.73-12.8L233.73-12.8Q233.73-9 232.05-5.98 230.38-2.95 227.53-1.23 224.68 0.5 221.08 0.5L221.08 0.5Q217.53 0.5 214.65-1.23 211.78-2.95 210.1-5.98 208.43-9 208.43-12.8L208.43-12.8Q208.43-16.65 210.1-19.65 211.78-22.65 214.65-24.4 217.53-26.15 221.08-26.15L221.08-26.15Q224.68-26.15 227.53-24.4 230.38-22.65 232.05-19.65 233.73-16.65 233.73-12.8ZM230.73-12.8L230.73-12.8Q230.73-15.85 229.48-18.23 228.23-20.6 226.05-21.98 223.88-23.35 221.08-23.35L221.08-23.35Q218.33-23.35 216.15-21.98 213.98-20.6 212.7-18.23 211.43-15.85 211.43-12.8L211.43-12.8Q211.43-9.75 212.7-7.4 213.98-5.05 216.15-3.68 218.33-2.3 221.08-2.3L221.08-2.3Q223.88-2.3 226.05-3.68 228.23-5.05 229.48-7.4 230.73-9.75 230.73-12.8ZM251.93-26.15L251.93-26.15Q255.23-26.15 257.2-24.83 259.18-23.5 260.05-21.23 260.93-18.95 260.93-16.2L260.93-16.2 260.93-1.5Q260.93-0.9 260.48-0.45 260.03 0 259.43 0L259.43 0Q258.73 0 258.32-0.45 257.93-0.9 257.93-1.5L257.93-1.5 257.93-16.05Q257.93-18.05 257.28-19.7 256.63-21.35 255.15-22.35 253.68-23.35 251.28-23.35L251.28-23.35Q249.13-23.35 247.2-22.35 245.28-21.35 244.08-19.7 242.88-18.05 242.88-16.05L242.88-16.05 242.88-1.5Q242.88-0.9 242.43-0.45 241.98 0 241.38 0L241.38 0Q240.68 0 240.28-0.45 239.88-0.9 239.88-1.5L239.88-1.5 239.88-23.9Q239.88-24.5 240.3-24.95 240.73-25.4 241.38-25.4L241.38-25.4Q242.03-25.4 242.45-24.95 242.88-24.5 242.88-23.9L242.88-23.9 242.88-19.7 241.73-17.9Q241.83-19.5 242.75-20.98 243.68-22.45 245.13-23.63 246.58-24.8 248.35-25.48 250.13-26.15 251.93-26.15Z" fill="#454545" data-fill-palette-color="primary"></path></g></svg></g></svg></g></svg></g></svg></g><g transform="matrix(1,0,0,1,111.12010198669547,0)"><svg viewBox="0 0 175.25739602660897 80.54154813359528" height="80.54154813359528" width="175.25739602660897"><g><svg xmlns="http://www.w3.org/2000/svg" xmlns:xlink="http://www.w3.org/1999/xlink" version="1.1" x="0" y="0" viewBox="3.1599216793068026 27.234650665826514 93.81630853759806 43.114361511168134" enable-background="new 0 0 100 100" xml:space="preserve" height="80.54154813359528" width="175.25739602660897" class="icon-icon-0" data-fill-palette-color="accent" id="icon-0"><g fill="#454545" data-fill-palette-color="accent"><path fill-rule="evenodd" clip-rule="evenodd" fill="#454545" d="M46.43 63.911c0.039 0.095 0.103 0.204 0.127 0.321 0.09 0.434-0.013 0.804-0.458 0.968-0.398 0.143-0.757 0.019-0.955-0.364-0.198-0.388-0.1-0.767 0.267-0.982 0.268-0.157 0.351-0.364 0.418-0.632 0.2-0.78 0.404-1.558 0.633-2.327 0.098-0.328 0.069-0.484-0.312-0.574-1.095-0.261-2.176-0.58-3.268-0.849-0.35-0.087-0.477-0.215-0.459-0.607 0.172-3.703 0.31-7.408 0.477-11.113 0.015-0.337-0.084-0.468-0.396-0.547-1.421-0.363-2.841-0.731-4.25-1.135-0.348-0.1-0.427 0.01-0.503 0.302-0.311 1.192-0.65 2.378-0.949 3.573-0.062 0.246-0.171 0.354-0.391 0.44-1.949 0.77-3.895 1.546-5.837 2.331-0.23 0.094-0.442 0.107-0.677 0.044-1.775-0.485-3.548-0.976-5.33-1.433-0.337-0.086-0.369-0.194-0.286-0.5 0.707-2.591 1.41-5.185 2.081-7.786 0.111-0.432 0.298-0.41 0.632-0.319 3.5 0.948 7.003 1.885 10.505 2.829 0.27 0.072 0.48 0.141 0.569-0.256 0.082-0.364-0.095-0.409-0.367-0.481-2.125-0.56-4.246-1.133-6.369-1.704-1.414-0.379-2.826-0.77-4.245-1.132-0.312-0.079-0.392-0.175-0.303-0.502 0.753-2.746 1.495-5.496 2.218-8.25 0.086-0.329 0.195-0.388 0.512-0.301 1.755 0.487 3.516 0.958 5.279 1.419 0.258 0.068 0.447 0.184 0.61 0.392 1.281 1.638 2.566 3.271 3.86 4.899 0.157 0.199 0.211 0.358 0.136 0.623-0.371 1.306-0.701 2.623-1.063 3.931-0.087 0.314-0.074 0.461 0.301 0.553 1.285 0.316 2.561 0.666 3.83 1.036 0.407 0.118 0.514 0.035 0.528-0.385 0.11-3.132 0.25-6.262 0.36-9.394 0.038-1.092 0.467-2.086 0.698-3.128 0.04-0.18 0.199-0.238 0.338-0.319 1.909-1.102 3.817-2.202 5.72-3.312 0.22-0.128 0.423-0.152 0.663-0.087 2.828 0.764 5.657 1.526 8.489 2.277 0.281 0.075 0.456 0.205 0.602 0.462 1.036 1.821 2.083 3.637 3.146 5.443 0.165 0.282 0.188 0.524 0.128 0.845-0.367 2.009-1.388 3.736-2.319 5.504-1.01 1.914-2.014 3.832-3.024 5.745-0.136 0.255-0.211 0.403 0.189 0.499 1.27 0.31 2.524 0.664 3.781 1.017 0.286 0.079 0.396 0.017 0.471-0.28 0.331-1.317 0.695-2.624 1.037-3.937 0.074-0.279 0.205-0.45 0.489-0.561 1.902-0.742 3.798-1.5 5.69-2.264 0.279-0.113 0.526-0.137 0.822-0.054 1.741 0.483 3.483 0.954 5.232 1.398 0.358 0.091 0.395 0.224 0.308 0.547-0.733 2.697-1.467 5.393-2.156 8.101-0.129 0.506-0.333 0.479-0.729 0.373-3.483-0.944-6.973-1.87-10.456-2.811-0.277-0.076-0.452-0.134-0.535 0.25-0.065 0.299-0.039 0.377 0.27 0.458 2.661 0.697 5.314 1.421 7.973 2.136 0.914 0.246 1.825 0.507 2.746 0.729 0.296 0.071 0.369 0.156 0.284 0.466-0.716 2.627-1.419 5.258-2.108 7.892-0.085 0.333-0.213 0.358-0.512 0.277-1.776-0.487-3.556-0.957-5.332-1.429-0.233-0.062-0.404-0.19-0.558-0.388-1.257-1.607-2.521-3.214-3.797-4.809-0.211-0.263-0.266-0.494-0.169-0.828 0.336-1.164 0.622-2.347 0.955-3.514 0.072-0.259 0.021-0.345-0.221-0.408-1.418-0.369-2.838-0.739-4.249-1.136-0.307-0.086-0.357 0.071-0.464 0.271-1.714 3.281-3.444 6.555-5.144 9.844-0.2 0.387-0.383 0.453-0.771 0.339-1.065-0.309-2.139-0.579-3.209-0.865-0.143-0.038-0.316-0.179-0.386 0.083C46.976 61.843 46.708 62.862 46.43 63.911zM62.059 38.033c-0.036-0.078-0.073-0.178-0.127-0.268-0.974-1.69-1.955-3.378-2.922-5.071-0.12-0.209-0.282-0.296-0.502-0.353-1.07-0.278-2.149-0.541-3.204-0.867-0.43-0.133-0.533-0.007-0.636 0.377-2.427 9.088-4.861 18.175-7.303 27.258-0.082 0.304-0.041 0.446 0.285 0.525 0.92 0.226 1.836 0.462 2.746 0.729 0.279 0.083 0.37-0.011 0.487-0.232 3.537-6.764 7.08-13.521 10.62-20.283C61.797 39.289 61.841 38.649 62.059 38.033z" data-fill-palette-color="accent"></path><path fill-rule="evenodd" clip-rule="evenodd" fill="#454545" d="M28.37 32.768c-0.035 0.118-0.061 0.204-0.084 0.291-0.727 2.715-1.458 5.428-2.169 8.147-0.1 0.38-0.23 0.457-0.616 0.351-3.012-0.825-6.031-1.629-9.051-2.427-0.36-0.095-0.522-0.184-0.399-0.627 0.753-2.709 1.473-5.426 2.195-8.144 0.074-0.277 0.12-0.428 0.49-0.326 3.082 0.847 6.17 1.667 9.256 2.5C28.136 32.574 28.383 32.513 28.37 32.768z" data-fill-palette-color="accent"></path><path fill-rule="evenodd" clip-rule="evenodd" fill="#454545" d="M76.768 45.59c0.66 0.179 1.297 0.353 1.935 0.524 2.5 0.671 4.997 1.348 7.503 2 0.383 0.1 0.46 0.215 0.35 0.61-0.743 2.691-1.467 5.39-2.17 8.093-0.104 0.406-0.25 0.452-0.617 0.353-3.032-0.824-6.068-1.637-9.104-2.44-0.336-0.088-0.454-0.175-0.347-0.565 0.753-2.726 1.469-5.461 2.211-8.191C76.564 45.834 76.503 45.579 76.768 45.59z" data-fill-palette-color="accent"></path><path fill-rule="evenodd" clip-rule="evenodd" fill="#454545" d="M5.665 36.035c0.377-1.422 0.736-2.785 1.101-4.146 0.389-1.449 0.793-2.894 1.166-4.346 0.076-0.293 0.148-0.359 0.458-0.274 2.964 0.809 5.932 1.601 8.903 2.38 0.321 0.084 0.33 0.206 0.254 0.483-0.745 2.749-1.485 5.499-2.204 8.255-0.093 0.356-0.234 0.392-0.551 0.305-2.929-0.795-5.862-1.578-8.792-2.37C5.837 36.278 5.56 36.3 5.665 36.035z" data-fill-palette-color="accent"></path><path fill-rule="evenodd" clip-rule="evenodd" fill="#454545" d="M96.953 51.204c-0.333 1.233-0.65 2.405-0.966 3.576-0.434 1.619-0.88 3.235-1.292 4.86-0.091 0.361-0.212 0.398-0.549 0.306-2.909-0.789-5.823-1.563-8.741-2.332-0.339-0.09-0.433-0.203-0.331-0.578 0.752-2.726 1.475-5.461 2.197-8.194 0.079-0.301 0.172-0.398 0.505-0.307 2.943 0.804 5.895 1.587 8.841 2.38C96.788 50.962 97.057 50.944 96.953 51.204z" data-fill-palette-color="accent"></path><path fill-rule="evenodd" clip-rule="evenodd" fill="#454545" d="M23.295 50.978c-0.739-0.193-1.466-0.378-2.19-0.573-2.395-0.641-4.788-1.292-7.187-1.921-0.389-0.102-0.484-0.228-0.368-0.644 0.709-2.551 1.388-5.113 2.062-7.674 0.091-0.345 0.191-0.449 0.577-0.343 3.029 0.829 6.065 1.637 9.104 2.432 0.398 0.104 0.479 0.246 0.368 0.649-0.706 2.552-1.381 5.113-2.075 7.668C23.543 50.732 23.602 51.008 23.295 50.978z" data-fill-palette-color="accent"></path><path fill-rule="evenodd" clip-rule="evenodd" fill="#454545" d="M81.637 66.607c-0.537-0.139-1.021-0.258-1.504-0.387-2.655-0.713-5.31-1.429-7.967-2.131-0.375-0.098-0.449-0.221-0.34-0.613 0.71-2.569 1.392-5.147 2.071-7.725 0.085-0.319 0.17-0.42 0.538-0.319 3.028 0.828 6.065 1.637 9.103 2.43 0.42 0.11 0.509 0.255 0.391 0.682-0.708 2.554-1.383 5.115-2.072 7.673C81.814 66.37 81.831 66.579 81.637 66.607z" data-fill-palette-color="accent"></path><path fill-rule="evenodd" clip-rule="evenodd" fill="#454545" d="M14.994 39.659c-0.131 0.484-0.248 0.916-0.364 1.349-0.604 2.246-1.216 4.49-1.801 6.741-0.086 0.33-0.204 0.386-0.508 0.304-2.963-0.801-5.928-1.592-8.893-2.382-0.247-0.066-0.316-0.152-0.237-0.436 0.728-2.648 1.438-5.3 2.134-7.957 0.075-0.287 0.152-0.323 0.426-0.249 2.96 0.808 5.925 1.6 8.887 2.398C14.79 39.469 15.024 39.427 14.994 39.659z" data-fill-palette-color="accent"></path><path fill-rule="evenodd" clip-rule="evenodd" fill="#454545" d="M94.362 60.917c-0.035 0.105-0.07 0.188-0.091 0.273-0.695 2.604-1.392 5.207-2.077 7.812-0.085 0.325-0.193 0.397-0.547 0.302-2.893-0.792-5.789-1.562-8.691-2.32-0.393-0.103-0.489-0.224-0.371-0.646 0.71-2.552 1.39-5.112 2.059-7.678 0.096-0.365 0.213-0.441 0.579-0.341 2.91 0.794 5.825 1.564 8.736 2.352C94.104 60.71 94.333 60.681 94.362 60.917z" data-fill-palette-color="accent"></path><path fill-rule="evenodd" clip-rule="evenodd" fill="#454545" d="M44.989 70.348c-1.232-0.068-2.219-0.577-2.937-1.601-0.161-0.231-0.141-0.364 0.075-0.53 0.257-0.192 0.297 0.049 0.389 0.172 0.888 1.203 2.07 1.563 3.497 1.229 0.157-0.039 0.33-0.183 0.393 0.139 0.048 0.248-0.006 0.368-0.251 0.422C45.771 70.263 45.391 70.36 44.989 70.348z" data-fill-palette-color="accent"></path><path fill-rule="evenodd" clip-rule="evenodd" fill="#454545" d="M45.519 68.886c-1.011-0.02-1.817-0.351-2.487-1.002-0.108-0.105-0.321-0.196-0.076-0.414 0.194-0.171 0.296-0.165 0.471 0.014 0.66 0.665 1.475 0.907 2.396 0.822 0.209-0.019 0.389-0.048 0.421 0.245 0.036 0.319-0.188 0.285-0.375 0.308C45.728 68.876 45.585 68.882 45.519 68.886z" data-fill-palette-color="accent"></path><path fill-rule="evenodd" clip-rule="evenodd" fill="#454545" d="M45.551 67.401c-0.518-0.002-0.971-0.153-1.362-0.455-0.113-0.088-0.398-0.123-0.213-0.382 0.139-0.192 0.287-0.288 0.518-0.074 0.287 0.268 0.662 0.327 1.044 0.346 0.209 0.013 0.492-0.105 0.497 0.283C46.041 67.538 45.711 67.327 45.551 67.401z" data-fill-palette-color="accent"></path></g></svg></g></svg></g><g></g></svg></g><defs></defs></svg><rect width="395.52" height="170.7390260118817" fill="none" stroke="none" visibility="hidden"></rect></g></svg></g></svg>